<?xml version="1.0" standalone="no"?>
<!DOCTYPE svg PUBLIC "-//W3C//DTD SVG 20010904//EN"
 "http://www.w3.org/TR/2001/REC-SVG-20010904/DTD/svg10.dtd">
<svg version="1.0" xmlns="http://www.w3.org/2000/svg"
 width="2275.000000pt" height="1518.000000pt" viewBox="0 0 2275.000000 1518.000000"
 preserveAspectRatio="xMidYMid meet">

<g transform="translate(0.000000,1518.000000) scale(0.100000,-0.100000)"
fill="#000000" stroke="none">
<path d="M0 7590 l0 -7590 11375 0 11375 0 0 7590 0 7590 -11375 0 -11375 0 0
-7590z m13707 7449 c127 -62 223 -279 297 -672 64 -339 103 -766 122 -1312 4
-104 9 -226 13 -270 l6 -79 36 -11 c91 -25 96 -60 44 -274 -39 -158 -42 -181
-21 -181 8 0 39 -23 70 -51 66 -60 120 -162 138 -257 29 -157 -51 -335 -195
-430 l-38 -26 8 -75 c4 -42 8 -148 7 -236 -1 -214 -26 -344 -100 -533 -19 -48
-34 -93 -34 -101 0 -8 26 -55 59 -105 141 -219 233 -474 283 -789 33 -207 33
-498 -1 -647 -43 -196 -84 -323 -169 -529 -4 -12 14 -13 119 -8 314 16 633 94
932 227 61 27 112 48 113 47 6 -5 64 -249 84 -347 54 -271 65 -403 64 -775 0
-461 -22 -658 -115 -1025 -392 -1563 -1655 -2771 -3224 -3085 -296 -59 -390
-68 -739 -73 -328 -4 -542 6 -714 34 -689 110 -1347 386 -1886 791 -138 103
-205 163 -385 338 -339 331 -549 601 -762 980 -260 465 -444 1044 -499 1570
-18 176 -24 616 -11 785 79 989 512 1931 1193 2598 l64 62 28 -56 27 -57 -48
-49 -48 -48 262 -263 c185 -186 276 -285 314 -342 78 -119 155 -218 259 -333
83 -93 91 -105 78 -121 -7 -10 -39 -51 -72 -91 -222 -273 -426 -713 -501
-1082 -98 -488 -67 -963 95 -1433 57 -165 192 -437 293 -587 473 -708 1231
-1142 2075 -1187 347 -18 692 27 997 132 839 288 1473 957 1719 1815 76 262
108 586 88 880 -7 97 -17 210 -23 250 l-12 73 -37 -36 -37 -36 -32 135 -32
134 31 44 c32 43 34 59 14 125 -5 20 -3 21 33 16 l40 -5 46 94 c125 256 177
482 177 778 0 236 -33 431 -112 660 -43 124 -117 277 -148 305 -24 21 -46 14
-62 -20 -9 -21 -6 -61 20 -218 44 -265 59 -518 45 -729 -10 -144 -18 -189 -67
-381 -56 -221 -106 -387 -116 -387 -3 1 -34 59 -68 131 l-64 130 21 78 c58
215 87 489 77 717 -6 137 -37 389 -50 401 -3 3 -47 -32 -98 -79 -164 -151
-514 -416 -536 -406 -4 2 -58 41 -120 87 l-112 85 25 30 c52 63 113 163 139
228 23 60 34 113 51 260 13 108 138 155 192 71 25 -38 22 -179 -6 -293 -13
-52 -17 -88 -11 -94 11 -11 65 32 233 188 246 228 394 445 475 696 64 197 67
211 67 412 0 202 -7 234 -41 182 -27 -40 -126 -109 -192 -134 -122 -46 -315
-16 -708 110 -143 47 -446 125 -674 175 -362 80 -534 144 -604 227 -49 57 -85
122 -100 183 -7 27 -18 51 -24 53 -14 4 -105 -134 -155 -233 -184 -370 -163
-862 60 -1405 17 -43 22 -37 62 83 73 216 149 295 231 241 64 -43 65 -81 6
-229 -47 -115 -74 -256 -62 -317 6 -29 5 -30 -23 -25 -38 8 -230 27 -301 30
l-55 2 -37 85 c-20 47 -64 167 -98 268 -34 100 -67 182 -74 182 -30 -2 -228
-292 -330 -485 -26 -49 -54 -96 -61 -103 -7 -8 -79 -27 -161 -43 -172 -34
-231 -49 -369 -91 -310 -94 -427 -139 -635 -243 -73 -36 -133 -65 -135 -63 -2
2 -6 19 -9 38 -6 34 -4 36 47 60 67 33 82 62 143 292 l47 176 -39 64 c-45 72
-84 96 -167 105 -81 8 -148 -32 -189 -112 l-21 -40 -10 25 c-6 14 -30 68 -54
120 l-44 95 32 25 c17 14 61 43 97 66 l67 40 192 725 c106 398 212 801 237
894 64 243 132 499 239 903 91 343 95 354 131 391 103 105 273 140 380 77 59
-35 121 -105 157 -178 l30 -63 -121 -475 c-66 -261 -199 -779 -295 -1150 -241
-937 -274 -1064 -270 -1069 4 -3 65 32 690 403 l359 213 13 97 c21 167 89 389
161 518 38 70 118 203 153 255 l29 41 -30 64 c-55 118 -48 260 21 397 57 114
200 206 336 218 l70 6 43 164 c24 91 53 179 65 197 20 30 24 31 94 31 l72 0
127 215 c513 866 906 1372 1186 1525 107 59 172 68 243 34z m-5437 -1373 c0
-2 -18 -49 -39 -103 -93 -234 -157 -515 -177 -778 l-6 -90 -97 -65 c-993 -670
-1793 -1667 -2234 -2785 -228 -577 -354 -1105 -419 -1760 -15 -158 -15 -758 1
-955 77 -965 358 -1848 849 -2670 615 -1029 1572 -1891 2652 -2391 683 -316
1468 -517 2144 -551 296 -14 939 -5 1111 17 733 90 1388 283 2005 591 346 173
664 365 930 562 872 645 1576 1538 1997 2532 262 619 418 1272 463 1935 21
313 10 802 -25 1135 -72 675 -287 1396 -609 2038 -59 117 -64 133 -56 163 13
48 47 270 55 359 4 41 18 140 32 220 19 110 26 196 30 353 l6 207 45 -62 c25
-35 96 -139 158 -233 531 -807 907 -1791 1043 -2730 80 -554 94 -1220 36
-1750 -69 -630 -220 -1230 -457 -1825 -83 -209 -314 -680 -428 -875 -587
-1000 -1408 -1830 -2395 -2422 -600 -360 -1179 -599 -1872 -773 -681 -170
-1371 -228 -2133 -179 -1158 75 -2335 480 -3320 1143 -913 615 -1705 1494
-2218 2463 -451 852 -712 1767 -782 2738 -22 301 -10 850 26 1200 119 1176
578 2352 1297 3325 202 273 340 433 612 708 223 227 387 379 575 533 314 257
690 509 1065 713 114 61 135 71 135 62z m-179 -1512 c4 -16 7 -50 8 -75 l1
-46 -122 -95 c-68 -52 -171 -136 -231 -187 -99 -85 -106 -94 -96 -114 16 -31
631 -647 640 -642 4 3 16 -25 28 -63 l20 -67 -34 -35 -35 -35 -426 426 -426
426 139 125 c210 191 498 421 518 415 6 -2 13 -17 16 -33z m-347 -1035 c229
-232 416 -424 416 -428 0 -4 -43 -54 -96 -111 -134 -146 -276 -328 -409 -523
l-112 -167 -364 208 c-342 196 -660 380 -667 387 -11 10 188 313 331 504 149
199 454 551 477 551 4 0 195 -189 424 -421z m4848 204 c89 -46 97 -48 196 -53
102 -5 104 -6 133 -38 76 -85 -1 -181 -144 -182 -105 0 -262 50 -351 113 -62
44 -67 141 -9 186 39 31 72 26 175 -26z m-5846 -1144 c165 -94 380 -219 479
-277 99 -58 192 -113 207 -121 16 -9 28 -20 28 -24 0 -4 -36 -83 -79 -175
-105 -221 -179 -399 -239 -574 -66 -187 -61 -178 -84 -178 -12 0 -82 16 -157
36 -430 112 -851 227 -924 250 -47 16 -49 17 -43 48 9 45 96 310 145 437 117
310 329 749 360 749 5 0 143 -77 307 -171z m9878 -461 c83 -209 199 -552 194
-575 -3 -18 -50 -32 -747 -218 -195 -52 -364 -95 -376 -95 -14 0 -26 10 -34
26 -6 15 -10 27 -9 28 2 1 42 30 90 64 l86 62 339 90 c186 50 369 100 406 111
l68 20 -7 32 c-9 42 -71 215 -127 355 l-45 112 41 80 c23 44 44 80 48 80 3 0
36 -78 73 -172z m-6539 -417 c62 -28 130 -94 162 -160 51 -103 30 -257 -49
-346 -22 -25 -64 -58 -92 -73 -45 -24 -62 -27 -146 -27 -84 0 -102 3 -152 28
-106 52 -159 139 -166 273 -4 72 -1 89 20 135 44 95 108 151 211 185 54 18
154 11 212 -15z m2855 -13 c62 -36 115 -93 142 -153 31 -69 32 -190 1 -256
-51 -112 -148 -179 -270 -187 -91 -6 -146 9 -209 57 -102 77 -147 188 -125
310 21 114 78 191 175 238 45 21 62 24 146 21 82 -3 102 -7 140 -30z m-6740
-388 c477 -126 824 -221 831 -228 4 -4 -6 -74 -22 -157 -55 -290 -74 -443 -95
-757 l-6 -98 -599 0 -599 0 0 58 c0 271 58 759 131 1096 35 162 36 166 47 166
4 0 145 -36 312 -80z m10671 43 c36 -96 97 -432 128 -709 18 -164 41 -463 41
-541 l0 -33 -599 0 -599 0 -7 88 c-27 369 -44 509 -96 770 -17 84 -29 155 -28
156 4 3 888 243 1029 280 90 23 119 21 131 -11z m-6353 -280 c70 -53 291 -225
491 -382 338 -264 365 -283 385 -271 11 7 82 61 156 120 510 402 805 630 815
630 3 0 46 -40 95 -89 l90 -89 -130 -169 c-72 -92 -156 -202 -187 -243 -32
-41 -147 -189 -256 -328 l-197 -252 217 -278 c120 -152 283 -361 363 -463 81
-102 157 -203 170 -224 l23 -38 -29 -20 c-34 -24 -112 -104 -134 -136 l-15
-22 -42 28 c-23 15 -245 189 -495 385 -249 196 -457 358 -461 358 -5 1 -214
-160 -465 -357 -556 -437 -525 -413 -538 -405 -5 4 -26 27 -46 52 -20 25 -57
60 -82 79 -25 19 -46 39 -46 44 0 13 98 139 713 923 l57 73 -147 188 c-473
605 -623 799 -623 810 0 6 21 27 48 47 26 19 63 55 82 80 19 25 41 45 48 46 8
0 71 -44 140 -97z m1132 27 c84 -23 197 -65 220 -80 12 -9 7 -18 -30 -52 -25
-22 -74 -64 -110 -92 -245 -195 -349 -276 -355 -276 -8 0 -422 322 -480 373
l-40 35 65 31 c36 17 115 44 175 61 108 29 114 30 295 26 149 -4 199 -9 260
-26z m-1049 -873 l180 -228 -199 -251 c-109 -139 -203 -253 -209 -255 -17 -6
-71 115 -100 225 -24 87 -27 116 -27 277 -1 203 14 285 82 444 l36 84 29 -34
c16 -19 109 -137 208 -262z m1823 197 c71 -170 95 -334 77 -523 -15 -157 -84
-397 -118 -408 -12 -4 -104 107 -307 371 l-106 138 33 42 c18 22 98 124 177
226 147 191 189 240 201 240 4 0 23 -39 43 -86z m-5510 -591 c21 -315 40 -468
95 -758 16 -82 26 -153 22 -156 -3 -4 -253 -73 -556 -154 -302 -81 -558 -149
-567 -151 -23 -7 -31 12 -61 141 -67 285 -119 678 -133 1015 l-7 160 601 0
600 0 6 -97z m10122 -35 c-19 -375 -71 -760 -147 -1090 -16 -69 -24 -88 -38
-88 -40 0 -1117 284 -1133 298 -4 4 4 63 18 132 29 149 49 273 64 394 11 89
40 422 40 464 l0 22 601 0 602 0 -7 -132z m-5454 -555 c106 -83 218 -174 248
-202 51 -47 54 -52 37 -65 -23 -18 -192 -74 -277 -92 -87 -18 -306 -18 -416 1
-138 24 -337 96 -318 115 42 41 512 399 521 397 7 -1 99 -70 205 -154z m1320
-359 c99 -32 176 -122 204 -240 22 -97 -17 -214 -97 -289 -71 -67 -127 -90
-219 -90 -129 0 -234 66 -289 184 -22 47 -26 70 -26 141 1 72 5 94 28 142 70
145 229 205 399 152z m-2790 -17 c56 -33 113 -96 141 -157 30 -65 29 -186 -2
-257 -27 -62 -102 -135 -169 -166 -72 -33 -178 -30 -260 7 -72 33 -110 72
-152 156 -67 133 -24 304 99 394 63 46 100 56 206 53 78 -2 98 -7 137 -30z
m-3027 -124 c4 -10 26 -74 50 -143 69 -202 116 -314 255 -609 60 -127 70 -155
59 -166 -24 -22 -843 -497 -950 -550 -57 -29 -74 -34 -81 -23 -18 27 -168 328
-218 439 -93 206 -246 627 -265 731 -7 34 -5 39 18 47 14 6 246 69 514 140
268 71 504 134 523 140 56 15 87 13 95 -6z m9060 -98 c643 -171 670 -179 673
-198 4 -19 -109 -359 -174 -524 -98 -249 -308 -683 -330 -683 -27 0 -1024 588
-1024 604 0 6 32 76 71 156 97 199 177 388 237 560 65 188 71 200 96 200 12 0
215 -52 451 -115z m-8550 -1022 c147 -226 346 -483 489 -631 l90 -93 -428
-427 -427 -427 -76 80 c-105 112 -309 356 -412 494 -109 147 -311 449 -311
467 0 16 43 46 245 167 186 111 768 447 775 447 3 0 28 -35 55 -77z m8005
-146 c302 -175 457 -266 567 -334 86 -52 92 -24 -55 -248 -154 -236 -414 -566
-610 -775 l-71 -75 -420 420 c-232 231 -421 424 -421 430 0 5 37 51 81 100
123 136 263 313 378 480 58 83 118 167 134 188 l29 37 56 -31 c32 -18 181
-104 332 -192z m-547 -1257 c147 -146 267 -270 267 -277 0 -14 -173 -172 -325
-296 -282 -232 -710 -528 -729 -505 -2 1 -129 219 -281 483 -153 264 -285 492
-294 506 -20 35 -15 41 117 130 221 150 416 301 573 444 l94 85 155 -152 c85
-84 275 -272 423 -418z m-6655 455 c149 -132 298 -247 499 -383 95 -64 172
-121 172 -125 2 -18 -585 -1027 -596 -1027 -21 0 -349 216 -497 328 -130 99
-304 244 -444 372 l-114 103 74 74 c235 239 770 753 783 753 9 0 64 -43 123
-95z m968 -657 c176 -89 331 -155 534 -228 230 -82 241 -88 234 -119 -37 -160
-294 -1104 -304 -1114 -20 -21 -498 151 -779 280 -174 80 -399 191 -429 211
-10 7 10 50 85 183 218 387 498 869 503 866 3 -1 73 -37 156 -79z m4222 -7
c70 -108 542 -927 542 -940 0 -19 -55 -52 -229 -139 -213 -107 -406 -189 -646
-275 -209 -75 -332 -113 -342 -104 -6 7 -155 554 -252 929 l-59 227 101 31
c206 64 534 200 752 313 39 20 73 36 77 37 3 0 29 -35 56 -79z m-3169 -371
c198 -44 521 -86 746 -97 l135 -6 0 -599 0 -598 -129 0 c-223 0 -559 41 -946
116 -185 36 -235 50 -235 66 0 22 273 1064 295 1126 6 17 30 15 134 -8z m2114
-240 c112 -421 217 -839 217 -865 0 -13 -4 -26 -9 -29 -16 -10 -276 -65 -426
-90 -181 -30 -467 -63 -625 -71 -63 -3 -143 -8 -177 -11 l-63 -6 0 606 0 606
68 0 c178 0 638 58 822 105 30 7 71 13 90 12 l35 -2 68 -255z"/>
<path d="M13524 14792 c-177 -125 -519 -544 -777 -953 -115 -183 -377 -620
-377 -630 0 -9 39 -21 333 -104 332 -93 955 -254 1163 -300 44 -10 47 10 40
248 -21 711 -70 1149 -168 1520 -36 136 -94 260 -124 265 -11 2 -50 -19 -90
-46z"/>
<path d="M10383 13395 c-39 -28 -45 -49 -423 -1485 -138 -525 -271 -1033 -296
-1128 -25 -95 -44 -178 -41 -186 3 -7 18 -16 32 -20 15 -4 52 -23 82 -42 31
-19 57 -34 58 -32 3 2 171 641 550 2088 106 402 175 695 175 739 0 53 -26 81
-78 81 -21 0 -47 -7 -59 -15z"/>
<path d="M12135 13008 c-15 -43 -46 -170 -42 -174 2 -3 339 -92 748 -200 409
-107 827 -217 929 -244 101 -27 188 -46 192 -42 13 13 49 175 41 183 -4 4
-327 91 -718 194 -390 102 -802 211 -915 241 -113 30 -211 54 -218 54 -7 0
-15 -6 -17 -12z"/>
<path d="M11764 12639 c-92 -35 -120 -80 -131 -210 -5 -62 -4 -67 22 -91 15
-14 69 -40 120 -58 l93 -32 -1 -121 c0 -74 4 -137 12 -159 15 -44 63 -89 128
-118 52 -24 260 -77 528 -135 192 -42 399 -97 584 -156 319 -102 466 -132 534
-110 48 16 126 103 169 188 l35 68 109 -3 c101 -4 112 -2 143 20 64 43 96 146
71 223 -18 55 -84 116 -155 143 -69 27 -128 43 -710 197 -839 221 -1459 377
-1493 374 -4 0 -30 -9 -58 -20z m776 -358 c55 -54 51 -118 -9 -158 -45 -31
-84 -29 -121 5 -43 37 -51 96 -20 135 43 55 106 62 150 18z m813 -202 c60 -27
71 -110 23 -162 -49 -53 -108 -45 -153 22 -36 53 -31 85 19 121 44 32 72 37
111 19z"/>
<path d="M11015 10947 c-289 -153 -1026 -588 -1036 -611 -16 -37 -100 -379
-94 -384 6 -6 503 121 676 174 9 2 40 50 69 107 115 220 201 353 379 582 120
155 139 185 119 185 -7 0 -58 -24 -113 -53z"/>
<path d="M7325 7701 c-8 -13 -8 -212 0 -220 4 -3 290 -7 636 -9 l629 -2 0 58
c0 33 3 87 6 121 l7 61 -636 0 c-389 0 -638 -4 -642 -9z"/>
<path d="M14154 7633 c3 -42 6 -96 6 -120 l0 -43 630 0 630 0 0 120 0 120
-636 0 -637 0 7 -77z"/>
<path d="M8870 5255 l-445 -445 85 -85 85 -85 450 450 450 451 -85 79 c-47 43
-87 79 -90 80 -3 0 -205 -200 -450 -445z"/>
<path d="M13338 5621 l-83 -80 450 -451 450 -450 85 85 85 85 -345 346 c-190
190 -393 390 -452 445 l-107 100 -83 -80z"/>
<path d="M11250 4175 l0 -635 125 0 125 0 0 273 c0 151 -3 436 -7 635 l-6 362
-119 0 -118 0 0 -635z"/>
<path d="M7254 11258 c-174 -182 -543 -677 -531 -712 5 -17 271 -176 728 -434
l56 -32 44 63 c83 119 216 293 318 417 l102 124 -318 318 c-175 175 -323 318
-329 318 -6 0 -38 -28 -70 -62z"/>
<path d="M6476 10127 c-58 -87 -223 -463 -302 -684 -76 -214 -75 -209 -28
-222 127 -36 784 -212 811 -217 38 -8 28 -26 137 251 41 105 99 243 130 309
31 65 56 122 56 127 0 12 -719 432 -772 452 -12 4 -23 -1 -32 -16z"/>
<path d="M5980 8763 c-39 -134 -107 -651 -112 -848 l-3 -110 457 -3 457 -2 5
52 c4 29 11 103 16 163 11 108 51 405 68 497 l9 48 -81 24 c-209 63 -772 216
-795 216 -6 0 -15 -17 -21 -37z"/>
<path d="M16705 8793 c-54 -13 -659 -177 -734 -198 -47 -14 -89 -29 -93 -33
-4 -4 1 -57 11 -118 24 -131 45 -288 67 -484 8 -79 16 -145 17 -146 1 -1 208
-4 460 -7 348 -3 457 -2 457 7 0 155 -83 810 -121 948 -10 38 -18 42 -64 31z"/>
<path d="M5865 7278 c20 -324 95 -852 124 -881 5 -5 45 -1 92 8 113 23 771
203 782 214 5 5 -5 104 -22 222 -23 161 -61 495 -61 536 0 1 -207 3 -461 3
l-461 0 7 -102z"/>
<path d="M15966 7338 c-3 -24 -11 -95 -17 -158 -12 -131 -42 -345 -65 -469 -8
-46 -12 -87 -7 -92 14 -14 872 -243 881 -235 28 28 132 803 132 983 0 10 -89
13 -459 13 l-460 0 -5 -42z"/>
<path d="M6910 6167 c-531 -143 -792 -216 -798 -221 -9 -9 66 -231 140 -415
87 -217 229 -503 246 -496 17 6 481 270 655 372 70 41 127 79 127 83 0 4 -23
57 -51 116 -57 121 -138 317 -194 469 -20 55 -40 103 -44 106 -3 4 -40 -3 -81
-14z"/>
<path d="M15721 6097 c-61 -167 -111 -287 -181 -441 -39 -84 -70 -158 -70
-163 0 -6 30 -29 68 -50 37 -22 195 -114 352 -205 157 -91 304 -175 327 -187
l42 -21 15 23 c21 32 148 299 200 420 54 128 171 466 163 473 -7 8 -90 31
-512 144 -187 50 -347 93 -355 95 -12 4 -24 -18 -49 -88z"/>
<path d="M7270 4969 c-470 -273 -550 -321 -550 -333 0 -49 431 -617 567 -748
l38 -38 324 324 324 324 -95 114 c-93 111 -229 289 -321 421 -27 37 -51 67
-55 67 -4 0 -108 -59 -232 -131z"/>
<path d="M15143 4967 c-80 -114 -216 -290 -335 -430 l-32 -38 324 -325 325
-325 68 73 c136 145 468 578 519 676 l23 44 -24 16 c-35 25 -762 442 -770 442
-3 0 -48 -60 -98 -133z"/>
<path d="M14387 4124 c-73 -68 -293 -238 -420 -324 -53 -36 -97 -71 -97 -78 0
-7 64 -124 141 -260 295 -514 300 -522 324 -522 45 0 611 428 735 554 l45 46
-320 320 c-176 176 -327 320 -335 320 -8 -1 -41 -25 -73 -56z"/>
<path d="M7951 3856 l-323 -323 138 -118 c212 -178 624 -485 653 -485 3 0 28
37 56 83 96 161 405 698 405 706 0 4 -75 62 -167 128 -93 67 -226 169 -297
227 -71 58 -132 106 -135 106 -3 0 -152 -146 -330 -324z"/>
<path d="M9262 3487 c-11 -15 -195 -330 -337 -580 -58 -104 -104 -195 -101
-202 21 -56 916 -416 916 -369 0 3 21 81 46 172 76 276 184 695 180 699 -2 2
-77 32 -167 67 -194 75 -342 137 -422 178 -87 44 -104 49 -115 35z"/>
<path d="M13355 3446 c-89 -43 -484 -205 -558 -230 -15 -5 -17 -12 -12 -38 12
-52 226 -841 231 -849 4 -7 180 49 339 109 102 38 297 123 448 196 130 63 133
66 96 139 -42 83 -421 727 -427 726 -4 0 -57 -24 -117 -53z"/>
<path d="M10387 3053 c-36 -111 -217 -807 -217 -835 0 -11 27 -20 108 -36 223
-43 561 -87 764 -98 l118 -7 0 424 c0 233 -3 440 -6 460 l-6 36 -132 12 c-207
20 -486 61 -590 87 -21 5 -25 1 -39 -43z"/>
<path d="M12230 3079 c-112 -23 -419 -65 -542 -75 -86 -7 -86 -7 -92 -37 -3
-16 -6 -223 -6 -460 l0 -430 123 6 c144 8 465 47 662 82 175 31 199 38 203 57
3 16 -214 832 -229 860 -5 10 -13 17 -17 17 -4 -1 -50 -10 -102 -20z"/>
</g>
</svg>
