<svg xmlns="http://www.w3.org/2000/svg" version="1.0" width="1820.000000pt" height="1214.000000pt" viewBox="0 0 1820.000000 1214.000000" preserveAspectRatio="xMidYMid meet">

<g transform="translate(0.000000,1214.000000) scale(0.100000,-0.100000)" fill="#ff1200" stroke="none">
<path d="M8692 11519 c-928 -67 -1860 -389 -2637 -913 -301 -202 -546 -405 -821 -680 -210 -211 -338 -357 -500 -572 -582 -773 -949 -1689 -1059 -2639 -36 -317 -46 -734 -25 -1030 71 -977 391 -1896 938 -2695 324 -473 743 -916 1202 -1267 756 -578 1666 -951 2620 -1072 485 -62 1081 -53 1555 24 397 64 850 190 1190 332 39 16 106 45 150 63 124 52 425 208 579 300 987 589 1751 1449 2213 2489 255 576 409 1199 454 1845 23 335 4 825 -47 1171 -134 921 -530 1841 -1108 2570 -970 1223 -2361 1961 -3911 2075 -160 11 -626 11 -793 -1z m948 -603 c373 -45 696 -118 1033 -233 1437 -489 2566 -1623 3048 -3063 175 -525 249 -983 249 -1550 0 -280 -8 -410 -40 -657 -163 -1245 -825 -2397 -1835 -3189 -330 -259 -792 -525 -1180 -679 -421 -168 -856 -275 -1330 -327 -189 -21 -841 -17 -1025 6 -795 97 -1499 352 -2135 771 -478 316 -904 717 -1240 1170 -494 664 -811 1443 -919 2255 -46 343 -55 788 -22 1110 206 2063 1657 3755 3657 4265 249 64 548 112 849 139 121 10 762 -3 890 -18z" fill="#ff1200"/>
<path d="M8800 10593 c-285 -17 -810 -108 -810 -141 0 -12 58 -230 201 -757 22 -82 42 -152 44 -154 3 -2 60 8 127 22 199 43 475 77 621 77 l57 0 0 480 0 480 -92 -2 c-51 -1 -118 -3 -148 -5z m130 -481 l0 -368 -182 -17 c-101 -10 -239 -28 -306 -41 -84 -15 -125 -19 -128 -12 -8 23 -184 688 -184 697 0 27 516 105 718 108 l82 1 0 -368z" fill="#ff1200"/>
<path d="M9160 10122 l0 -482 58 0 c148 0 448 -38 645 -82 53 -11 99 -19 102 -17 2 3 47 164 99 359 135 510 149 561 145 564 -2 2 -56 15 -119 29 -252 56 -526 93 -777 104 l-153 6 0 -481z m383 343 c195 -21 508 -73 523 -87 3 -4 -148 -585 -182 -699 -4 -14 -13 -14 -97 2 -106 20 -303 45 -429 55 l-88 7 0 368 0 369 68 0 c37 0 129 -7 205 -15z" fill="#ff1200"/>
<path d="M7685 10376 c-88 -30 -218 -77 -290 -106 -134 -53 -492 -226 -501 -242 -5 -8 63 -130 369 -658 49 -85 93 -159 97 -163 4 -5 65 21 136 56 144 72 417 183 537 218 53 16 77 28 77 39 0 12 -144 554 -221 833 -12 42 -27 77 -33 77 -6 -1 -83 -25 -171 -54z m155 -277 c27 -101 69 -260 94 -353 25 -94 45 -171 43 -172 -1 -1 -60 -23 -130 -49 -136 -49 -264 -103 -367 -155 -35 -17 -66 -28 -70 -23 -4 4 -51 85 -105 178 -53 94 -133 231 -176 305 -43 75 -79 141 -79 146 0 13 232 125 380 184 129 52 353 130 358 126 1 -2 25 -86 52 -187z" fill="#ff1200"/>
<path d="M10316 10378 c-9 -29 -54 -197 -101 -373 -48 -176 -97 -359 -110 -407 -13 -48 -20 -89 -17 -91 4 -2 66 -23 137 -47 157 -52 376 -144 504 -211 51 -28 97 -49 102 -47 8 3 108 173 380 645 54 94 99 174 99 177 0 8 -277 146 -395 198 -165 72 -542 208 -578 208 -4 0 -13 -24 -21 -52z m279 -151 c182 -64 555 -231 555 -248 0 -6 -356 -627 -365 -637 -2 -2 -30 10 -63 27 -87 44 -303 135 -410 172 -72 25 -93 36 -89 48 2 9 43 162 91 341 48 179 89 332 92 341 5 19 27 13 189 -44z" fill="#ff1200"/>
<path d="M6674 9898 c-207 -129 -475 -336 -652 -504 l-83 -79 339 -339 339 -338 69 64 c145 134 318 268 474 368 47 29 88 57 93 60 4 4 -80 157 -186 341 -106 184 -213 369 -237 412 -24 42 -47 77 -50 77 -4 0 -51 -28 -106 -62z m251 -410 c99 -172 180 -316 180 -320 0 -4 -50 -42 -110 -85 -125 -88 -234 -174 -314 -246 l-54 -49 -264 264 c-205 205 -260 265 -250 274 138 132 586 473 622 473 6 0 91 -140 190 -311z" fill="#ff1200"/>
<path d="M11355 9858 c-63 -110 -163 -283 -318 -549 -53 -92 -97 -169 -97 -172 0 -3 24 -20 53 -37 146 -90 391 -277 515 -394 l73 -70 339 339 340 340 -38 38 c-67 70 -254 228 -407 342 -146 110 -376 265 -392 265 -5 0 -35 -46 -68 -102z m212 -124 c166 -112 424 -316 498 -393 l29 -32 -261 -261 -262 -262 -48 45 c-72 67 -185 156 -308 244 -60 43 -114 81 -118 85 -5 4 32 79 83 166 51 88 133 230 182 317 50 86 94 157 98 157 5 0 52 -30 107 -66z" fill="#ff1200"/>
<path d="M8735 9394 c-620 -68 -1226 -318 -1721 -711 -142 -113 -418 -389 -528 -528 -415 -525 -660 -1142 -717 -1804 -16 -195 -6 -573 20 -746 95 -624 321 -1145 710 -1635 100 -126 380 -405 511 -510 476 -379 1038 -619 1655 -706 154 -21 548 -30 715 -15 330 29 652 104 950 223 862 343 1549 1034 1883 1893 101 260 163 499 203 780 21 156 30 541 15 717 -135 1599 -1397 2883 -2991 3043 -188 19 -526 18 -705 -1z m448 -80 c16 -6 17 -45 17 -514 l0 -509 -100 0 -100 -1 0 508 c0 280 2 511 5 514 8 8 158 10 178 2z m-1952 -1239 c195 -196 355 -359 357 -363 1 -4 -27 -36 -63 -72 l-65 -64 -247 245 c-137 135 -286 283 -331 328 -46 45 -97 97 -113 116 l-30 33 67 66 c37 36 68 66 69 66 2 0 162 -160 356 -355z m3869 -140 l-360 -360 -65 65 c-36 35 -65 67 -65 70 0 3 161 166 357 363 l358 357 68 -68 67 -67 -360 -360z m-1740 254 c265 -31 536 -119 775 -252 186 -104 307 -195 463 -350 415 -409 634 -933 634 -1512 1 -337 -65 -631 -206 -920 -111 -229 -220 -388 -386 -559 -184 -190 -351 -315 -575 -428 -274 -139 -522 -207 -828 -227 -1069 -71 -2026 666 -2232 1719 -109 561 7 1130 328 1610 107 159 322 387 477 502 451 338 986 482 1550 417z m-2483 -2116 l-2 -98 -504 -3 c-397 -2 -506 0 -513 10 -9 15 -10 133 -2 166 l6 22 508 0 508 0 -1 -97z m5463 -3 l0 -100 -507 2 -508 3 -2 98 -2 97 509 0 510 0 0 -100z m-5105 -2000 l-360 -360 -67 67 -68 68 357 360 358 360 70 -67 70 -68 -360 -360z m3868 132 l357 -357 -68 -68 -67 -67 -360 360 -360 360 65 65 c35 36 67 65 70 65 3 0 166 -161 363 -358z m-1905 -864 l2 -508 -100 0 -100 0 0 510 0 511 98 -3 97 -3 3 -507z" fill="#ff1200"/>
<path d="M7889 7446 c-86 -30 -137 -80 -165 -158 -30 -86 -4 -205 58 -265 92 -89 249 -98 343 -20 62 51 88 102 93 184 4 64 1 79 -22 127 -57 116 -191 174 -307 132z" fill="#ff1200"/>
<path d="M10145 7445 c-103 -38 -165 -131 -165 -245 0 -81 23 -132 80 -183 56 -52 96 -67 173 -67 84 0 156 35 202 99 96 131 55 309 -90 383 -51 27 -147 33 -200 13z" fill="#ff1200"/>
<path d="M8267 6970 c-15 -22 -45 -52 -67 -67 -22 -15 -40 -32 -40 -36 0 -4 46 -66 103 -138 56 -72 122 -157 147 -189 25 -32 99 -126 165 -210 66 -84 139 -177 162 -207 l42 -55 -128 -161 c-70 -89 -209 -266 -309 -394 -100 -127 -182 -235 -182 -240 1 -4 19 -20 40 -35 22 -16 52 -46 68 -68 15 -21 32 -39 37 -39 6 0 44 27 85 60 64 52 195 155 630 496 l80 63 143 -112 c293 -231 475 -374 558 -440 48 -37 91 -68 97 -68 6 0 13 9 17 19 7 22 99 111 115 111 5 0 10 5 10 11 0 6 -66 95 -147 197 -81 103 -220 280 -310 394 l-162 208 309 394 c171 218 310 399 310 403 -1 4 -19 20 -40 35 -22 16 -52 46 -68 68 -15 21 -31 39 -35 40 -5 0 -90 -64 -189 -142 -100 -79 -215 -170 -257 -202 -42 -33 -138 -108 -213 -168 l-137 -108 -395 310 c-217 170 -398 310 -403 310 -4 0 -21 -18 -36 -40z" fill="#ff1200"/>
<path d="M8975 6971 c-116 -20 -286 -78 -284 -98 0 -7 88 -77 341 -271 l69 -53 85 68 c48 37 98 77 113 88 93 68 210 168 206 175 -8 12 -131 57 -205 75 -79 18 -256 27 -325 16z" fill="#ff1200"/>
<path d="M8267 6429 c-98 -218 -99 -497 -3 -713 14 -32 30 -55 35 -52 5 3 64 77 132 163 68 87 139 176 157 200 l34 42 -136 173 c-74 95 -148 189 -165 208 l-29 35 -25 -56z" fill="#ff1200"/>
<path d="M9844 6412 c-27 -37 -99 -129 -158 -204 l-107 -137 158 -205 c87 -113 161 -205 165 -206 11 0 47 86 69 165 42 149 43 343 3 484 -19 65 -64 171 -73 170 -3 0 -29 -30 -57 -67z" fill="#ff1200"/>
<path d="M8888 5427 l-207 -162 57 -27 c147 -69 396 -94 557 -54 80 19 202 64 210 76 3 5 -57 57 -132 117 -76 59 -167 131 -203 160 -36 29 -67 53 -70 52 -3 0 -98 -73 -212 -162z" fill="#ff1200"/>
<path d="M10189 5189 c-127 -19 -211 -120 -210 -253 2 -237 285 -343 444 -167 36 40 67 119 67 171 0 47 -29 124 -61 163 -54 66 -149 100 -240 86z" fill="#ff1200"/>
<path d="M7871 5176 c-48 -17 -108 -71 -132 -119 -12 -23 -24 -69 -27 -104 -4 -56 -1 -70 27 -127 17 -35 46 -75 64 -89 41 -31 116 -57 166 -57 92 0 192 66 232 153 21 48 25 131 7 189 -15 51 -82 126 -133 149 -47 22 -152 24 -204 5z" fill="#ff1200"/>
<path d="M5794 9168 c-140 -145 -285 -324 -422 -521 -86 -123 -167 -255 -161 -261 9 -9 822 -476 824 -474 2 2 44 66 95 142 105 157 215 297 327 416 l76 81 -339 340 -339 339 -61 -62z m328 -365 l256 -258 -99 -120 c-55 -66 -139 -175 -186 -242 l-87 -122 -66 37 c-203 113 -569 328 -570 334 0 10 93 150 173 258 109 149 298 370 316 370 3 0 122 -116 263 -257z" fill="#ff1200"/>
<path d="M12005 8891 l-340 -341 56 -57 c121 -126 257 -299 372 -475 64 -99 71 -106 91 -96 31 16 800 460 804 463 6 5 -16 43 -86 150 -146 224 -319 446 -473 608 l-84 88 -340 -340z m433 68 c122 -137 392 -502 392 -527 0 -6 -272 -164 -581 -340 l-58 -33 -59 88 c-65 97 -170 233 -256 333 l-56 65 258 258 c141 141 261 256 267 254 5 -2 47 -46 93 -98z" fill="#ff1200"/>
<path d="M5082 8168 c-97 -183 -206 -440 -278 -656 -37 -111 -65 -204 -62 -208 10 -9 884 -244 910 -244 10 0 21 20 33 63 30 110 125 348 206 515 44 90 79 165 79 167 0 2 -64 40 -142 86 -79 45 -259 149 -400 231 -141 81 -263 151 -271 154 -11 4 -32 -27 -75 -108z m297 -150 c97 -56 236 -137 309 -179 74 -42 136 -79 138 -82 3 -3 -10 -36 -29 -74 -49 -96 -117 -259 -162 -385 -37 -105 -38 -108 -64 -101 -81 20 -685 183 -688 186 -5 6 72 226 124 352 63 154 174 385 186 385 5 0 89 -46 186 -102z" fill="#ff1200"/>
<path d="M12910 8201 c-74 -43 -254 -146 -400 -230 -146 -84 -269 -156 -274 -161 -5 -5 22 -70 62 -152 77 -157 165 -374 207 -510 18 -59 32 -88 42 -88 8 0 101 23 207 51 538 145 699 189 702 192 11 10 -117 380 -190 551 -60 139 -204 426 -214 426 -4 0 -68 -36 -142 -79z m170 -213 c73 -155 157 -361 205 -503 30 -90 32 -101 17 -107 -9 -4 -163 -46 -342 -94 -179 -48 -332 -89 -341 -91 -12 -3 -25 23 -58 114 -24 65 -75 188 -113 273 -38 85 -72 160 -74 167 -3 7 23 28 61 50 37 21 178 102 314 180 135 79 251 143 257 143 6 0 39 -60 74 -132z" fill="#ff1200"/>
<path d="M4700 7172 c0 -4 -11 -57 -25 -117 -54 -242 -90 -516 -101 -772 l-7 -153 480 0 480 0 7 133 c9 172 30 336 67 521 16 82 28 150 27 152 -6 5 -899 244 -913 244 -8 0 -15 -3 -15 -8z m460 -226 c190 -52 344 -98 343 -102 -26 -139 -55 -342 -64 -456 l-13 -148 -368 0 -368 0 0 65 c0 96 28 350 56 515 30 178 41 220 57 220 7 -1 167 -43 357 -94z" fill="#ff1200"/>
<path d="M13110 7085 c-190 -52 -389 -106 -443 -121 l-99 -28 5 -30 c3 -17 15 -74 26 -126 32 -150 50 -292 63 -477 l11 -173 480 0 479 0 -7 138 c-14 277 -54 581 -108 812 -19 79 -26 95 -42 97 -11 1 -175 -40 -365 -92z m304 -62 c26 -89 81 -484 92 -666 l7 -117 -369 2 -369 3 -7 75 c-17 173 -41 351 -58 435 -10 50 -16 93 -12 96 4 4 104 32 222 64 118 32 269 72 335 90 143 39 152 40 159 18z" fill="#ff1200"/>
<path d="M4573 5858 c4 -84 14 -214 22 -288 30 -257 98 -610 119 -610 6 0 52 11 101 25 50 14 252 68 450 121 198 53 361 97 363 99 1 1 -11 69 -27 151 -37 185 -58 349 -67 522 l-7 132 -480 0 -480 0 6 -152z m865 -100 c7 -79 24 -214 38 -301 15 -90 23 -162 18 -166 -5 -4 -164 -49 -353 -100 -262 -70 -346 -89 -352 -80 -24 40 -85 459 -95 662 l-7 127 370 0 369 0 12 -142z" fill="#ff1200"/>
<path d="M12661 5828 c-13 -185 -35 -345 -72 -521 -12 -54 -19 -100 -17 -102 3 -3 152 -44 667 -182 134 -35 247 -61 251 -56 10 10 54 214 79 368 26 157 48 366 57 538 l7 137 -480 0 -479 0 -13 -182z m845 -45 c-12 -201 -79 -660 -100 -680 -2 -3 -141 32 -308 77 -441 118 -410 108 -404 128 15 46 56 323 67 450 l12 142 370 0 370 0 -7 -117z" fill="#ff1200"/>
<path d="M5355 5005 c-148 -40 -342 -92 -431 -115 -89 -23 -167 -46 -175 -50 -10 -7 -1 -46 49 -197 35 -103 91 -253 124 -333 58 -137 199 -425 218 -444 5 -5 57 20 122 57 312 180 701 407 705 411 3 3 -31 78 -75 168 -85 175 -167 375 -203 501 -19 65 -25 77 -43 76 -12 0 -142 -33 -291 -74z m280 -162 c44 -125 112 -287 162 -386 19 -38 33 -70 31 -72 -11 -10 -631 -365 -637 -365 -10 0 -126 242 -185 386 -48 118 -128 346 -122 351 3 3 680 187 707 192 4 0 23 -47 44 -106z" fill="#ff1200"/>
<path d="M12500 4978 c-45 -145 -121 -330 -201 -490 -38 -76 -69 -142 -69 -147 0 -8 810 -481 824 -481 13 0 187 363 249 520 66 166 161 449 154 457 -5 4 -368 103 -652 178 -77 20 -164 43 -193 51 -29 8 -59 14 -66 14 -8 0 -26 -41 -46 -102z m459 -123 c195 -52 355 -96 357 -97 4 -4 -77 -236 -115 -333 -53 -132 -183 -405 -193 -405 -5 0 -66 33 -136 74 -70 40 -210 122 -312 181 -102 59 -187 109 -189 111 -2 2 23 61 57 131 61 129 95 212 146 356 16 42 29 77 30 77 0 0 160 -43 355 -95z" fill="#ff1200"/>
<path d="M5617 3992 c-306 -178 -406 -241 -402 -252 14 -35 158 -251 252 -378 103 -137 278 -344 350 -414 l38 -38 340 340 340 340 -56 57 c-124 129 -282 332 -383 491 -32 50 -61 92 -65 91 -3 0 -189 -107 -414 -237z m420 46 c49 -76 190 -262 268 -353 l76 -89 -261 -260 -261 -261 -58 61 c-113 119 -316 384 -403 526 -25 41 -28 52 -17 59 8 5 109 64 224 131 116 66 251 145 300 174 50 29 93 53 97 54 4 0 20 -19 35 -42z" fill="#ff1200"/>
<path d="M12067 4088 c-105 -157 -207 -289 -324 -416 l-76 -84 339 -340 339 -339 84 88 c95 100 284 334 381 471 70 99 180 271 180 281 0 5 -795 470 -820 479 -4 1 -50 -62 -103 -140z m380 -151 c136 -79 279 -161 316 -182 47 -25 66 -42 63 -52 -24 -63 -305 -435 -429 -568 l-56 -60 -262 262 -262 261 57 64 c66 72 212 263 271 355 22 34 43 62 47 63 3 0 118 -64 255 -143z" fill="#ff1200"/>
<path d="M6276 3161 l-338 -338 99 -91 c132 -122 281 -244 419 -342 115 -82 312 -210 323 -210 3 0 60 94 125 208 66 114 158 275 206 357 48 83 101 175 118 206 l31 55 -137 92 c-144 96 -309 223 -414 320 -35 31 -70 63 -78 69 -14 10 -69 -41 -354 -326z m486 73 c40 -34 125 -98 188 -143 63 -45 125 -90 137 -99 l23 -17 -183 -317 c-100 -175 -186 -318 -190 -318 -26 0 -359 246 -527 391 l-110 94 262 262 262 262 32 -27 c18 -15 65 -54 106 -88z" fill="#ff1200"/>
<path d="M11500 3428 c-102 -96 -279 -233 -432 -335 -71 -47 -128 -88 -128 -92 0 -4 6 -15 14 -26 7 -11 47 -78 88 -150 177 -308 370 -640 373 -643 5 -6 43 16 150 87 214 140 465 337 627 490 l69 65 -338 338 c-186 186 -340 338 -343 338 -3 -1 -39 -33 -80 -72z m335 -338 l259 -259 -24 -27 c-88 -94 -532 -432 -604 -460 -9 -3 -33 30 -71 98 -32 57 -114 199 -182 316 -68 117 -123 216 -123 220 0 4 42 34 92 67 96 62 316 234 357 279 14 14 27 26 30 26 4 0 123 -117 266 -260z" fill="#ff1200"/>
<path d="M7127 2536 c-130 -227 -237 -416 -237 -420 0 -13 395 -202 550 -263 162 -64 418 -149 425 -141 6 6 245 895 245 912 0 7 -63 34 -157 65 -174 59 -360 137 -498 212 l-91 48 -237 -413z m351 235 c89 -45 266 -119 387 -163 60 -22 111 -41 112 -42 3 -3 -171 -659 -184 -694 -8 -21 -10 -21 -133 22 -229 79 -610 247 -610 269 0 10 361 637 367 637 2 0 29 -13 61 -29z" fill="#ff1200"/>
<path d="M10685 2873 c-152 -77 -354 -160 -498 -204 -56 -17 -103 -32 -104 -33 -1 -1 36 -144 82 -317 47 -173 101 -375 121 -449 44 -167 42 -160 52 -160 22 0 292 93 435 149 212 84 541 247 534 265 -5 12 -54 99 -349 609 -66 114 -125 207 -132 206 -6 0 -69 -30 -141 -66z m199 -246 c55 -94 138 -237 184 -316 69 -119 81 -146 70 -157 -15 -15 -251 -125 -384 -180 -102 -41 -338 -124 -342 -119 -3 2 -192 704 -192 711 0 1 17 8 38 14 74 24 339 132 427 175 50 24 92 44 95 44 3 0 50 -77 104 -172z" fill="#ff1200"/>
<path d="M8230 2595 c0 -2 -54 -205 -121 -451 -66 -245 -118 -452 -116 -458 3 -7 18 -16 34 -19 383 -83 717 -127 956 -127 l57 0 0 479 0 478 -132 7 c-164 9 -396 39 -546 71 -118 26 -132 28 -132 20z m243 -145 c64 -12 193 -29 285 -38 l167 -17 3 -369 2 -369 -112 7 c-215 13 -664 79 -687 101 -4 5 176 689 186 708 3 4 12 6 21 3 10 -3 70 -15 135 -26z" fill="#ff1200"/>
<path d="M9919 2596 c-8 -8 -263 -55 -379 -70 -63 -8 -175 -18 -247 -22 l-133 -7 0 -480 0 -480 143 7 c260 13 529 48 777 103 63 14 119 28 123 33 5 4 -46 211 -112 460 -67 249 -121 454 -121 456 0 5 -46 5 -51 0z m-25 -168 c8 -29 38 -141 66 -248 29 -107 65 -242 81 -299 16 -58 29 -108 29 -112 0 -25 -585 -109 -757 -109 l-43 0 2 368 3 367 75 7 c163 16 339 40 425 57 50 10 93 19 97 20 4 0 13 -23 22 -51z" fill="#ff1200"/>
</g>
</svg>